<?xml version="1.0" encoding="utf-8"?>
<!-- Generator: Adobe Illustrator 24.1.2, SVG Export Plug-In . SVG Version: 6.00 Build 0)  -->
<svg version="1.1" id="Layer_1" xmlns="http://www.w3.org/2000/svg" xmlns:xlink="http://www.w3.org/1999/xlink" x="0px" y="0px"
	 viewBox="0 0 128 128" style="enable-background:new 0 0 128 128;" xml:space="preserve">
<style type="text/css">
	.st0{fill:#C83737;}
	.st1{fill:#FFFFFF;}
</style>
<rect x="14.6" y="14.6" transform="matrix(0.3635 -0.9316 0.9316 0.3635 -18.886 100.3582)" class="st0" width="98.8" height="98.8"/>
<g>
	<g>
		<path class="st1" d="M33,75c1.1,0.9,2.1,2.1,2,3c-0.1,0.5-0.1,1-0.1,1.5c0,7.4,5.8,13.3,13,13.3c0.9,0,1.7-0.1,2.6-0.3
			c1.4-0.3,3.1,0.3,4.1,1.4c2.4,2.6,5.7,4.3,9.5,4.3c4,0,7.5-1.8,9.9-4.7c0.9-1.1,2.5-1.6,4-1.2c1.1,0.3,2.4,0.5,3.6,0.5
			c7.2,0,13-6,13-13.3c0-0.8-0.1-1.6-0.2-2.4c-0.2-1.3,0.4-3,1.5-4c2.5-2.4,4.1-5.9,4.1-9.7c0-4.2-1.9-7.9-4.8-10.4
			c-1.1-0.9-2.1-2.1-2-3c0.1-0.5,0.1-1,0.1-1.5c0-7.4-5.8-13.3-13-13.3c-0.9,0-1.7,0.1-2.6,0.3c-1.4,0.3-3.1-0.3-4.1-1.4
			c-2.4-2.6-5.7-4.3-9.5-4.3c-3.8,0-7.1,1.6-9.5,4.3c-1,1.1-2.7,1.7-4.1,1.4c-0.8-0.2-1.7-0.3-2.6-0.3c-7.2,0-13,6-13,13.3
			c0,0.7,0.1,1.4,0.2,2.1c0.2,1.1-0.6,2.6-1.8,3.5c-3.1,2.4-5.1,6.3-5.1,10.6C28.2,68.9,30.1,72.6,33,75z M46.7,65.2
			c0.3-0.5,1-0.5,1.7,0.1l6.8,4.8c0.4,0.2,0.7,0.3,1.1,0.3c0.7,0,1.3-0.5,1.8-1l21.7-21.7c1.4-1.5,2.7-2,3.5-1.4
			c0.4,0.3,0.7,0.7,0.7,1.1c0.1,0.5-0.1,1.1-0.5,1.6l-26,31.6c-0.4,0.5-0.9,0.7-1.4,0.7c-0.6,0-1.1-0.4-1.5-1l-7.6-13.8
			C46.5,66.1,46.5,65.5,46.7,65.2z"/>
	</g>
</g>
</svg>
